<svg width="34" height="26" viewBox="0 0 34 26" fill="none" xmlns="http://www.w3.org/2000/svg">
<path d="M27.5495 10.8336H27.2995C26.0137 10.5118 24.6685 10.5118 23.3828 10.8336H23.1161C21.9338 11.1253 20.8333 11.682 19.8978 12.4616C18.9623 13.2412 18.2163 14.2233 17.7161 15.3336C17.4775 15.3164 17.238 15.3164 16.9995 15.3336C16.7609 15.3164 16.5214 15.3164 16.2828 15.3336C15.7826 14.2233 15.0366 13.2412 14.1011 12.4616C13.1656 11.682 12.0651 11.1253 10.8828 10.8336H10.6328C9.34706 10.5118 8.00185 10.5118 6.71612 10.8336H6.44945C4.7003 11.2663 3.14691 12.2734 2.03794 13.6936C0.92897 15.1138 0.328547 16.865 0.332786 18.6669H3.66612C3.66422 17.6102 4.01598 16.5832 4.66536 15.7496C5.31475 14.916 6.22441 14.3236 7.24945 14.0669H7.51612C8.27162 13.8818 9.06062 13.8818 9.81612 14.0669H10.0828C10.8213 14.2567 11.5027 14.6228 12.0687 15.1336C12.6348 15.6445 13.0685 16.285 13.3328 17.0002C12.6714 17.7136 12.2325 18.6045 12.0698 19.5636C11.9072 20.5227 12.0279 21.5084 12.4171 22.4C12.8063 23.2915 13.4471 24.0502 14.261 24.583C15.075 25.1158 16.0266 25.3996 16.9995 25.3996C17.9723 25.3996 18.9239 25.1158 19.7379 24.583C20.5518 24.0502 21.1926 23.2915 21.5819 22.4C21.9711 21.5084 22.0917 20.5227 21.9291 19.5636C21.7664 18.6045 21.3275 17.7136 20.6661 17.0002C20.945 16.2845 21.3944 15.6478 21.9753 15.1453C22.5562 14.6428 23.2511 14.2898 23.9995 14.1169H24.2661C25.0216 13.9318 25.8106 13.9318 26.5661 14.1169H26.8328C27.8341 14.3871 28.7189 14.9787 29.3512 15.8008C29.9836 16.6228 30.3284 17.6298 30.3328 18.6669H33.6661C33.6674 16.8658 33.0659 15.116 31.9574 13.6964C30.8489 12.2768 29.2972 11.269 27.5495 10.8336ZM16.9995 22.0002C16.6698 22.0002 16.3476 21.9025 16.0735 21.7193C15.7994 21.5362 15.5858 21.2759 15.4597 20.9714C15.3335 20.6668 15.3005 20.3317 15.3648 20.0084C15.4291 19.6851 15.5879 19.3881 15.8209 19.1551C16.054 18.922 16.351 18.7632 16.6743 18.6989C16.9976 18.6346 17.3327 18.6676 17.6373 18.7938C17.9418 18.9199 18.2021 19.1335 18.3852 19.4076C18.5684 19.6817 18.6661 20.0039 18.6661 20.3336C18.6661 20.7756 18.4905 21.1995 18.178 21.5121C17.8654 21.8246 17.4415 22.0002 16.9995 22.0002ZM13.6661 5.33357C13.6661 4.34466 13.3729 3.37796 12.8235 2.55572C12.2741 1.73347 11.4932 1.09261 10.5795 0.714171C9.66591 0.335733 8.66057 0.236716 7.69067 0.429642C6.72076 0.622569 5.82985 1.09877 5.13059 1.79804C4.43132 2.4973 3.95512 3.38821 3.76219 4.35812C3.56927 5.32802 3.66828 6.33335 4.04672 7.24699C4.42516 8.16062 5.06602 8.94151 5.88827 9.49092C6.71051 10.0403 7.67721 10.3336 8.66612 10.3336C9.9922 10.3336 11.264 9.80678 12.2017 8.8691C13.1393 7.93142 13.6661 6.65965 13.6661 5.33357ZM6.99945 5.33357C6.99945 5.00393 7.0972 4.6817 7.28034 4.40762C7.46347 4.13354 7.72377 3.91992 8.02831 3.79377C8.33286 3.66762 8.66797 3.63462 8.99127 3.69893C9.31457 3.76324 9.61154 3.92197 9.84463 4.15506C10.0777 4.38814 10.2365 4.68512 10.3008 5.00842C10.3651 5.33172 10.3321 5.66683 10.2059 5.97137C10.0798 6.27592 9.86615 6.53622 9.59207 6.71935C9.31799 6.90249 8.99575 7.00024 8.66612 7.00024C8.22409 7.00024 7.80017 6.82464 7.48761 6.51208C7.17505 6.19952 6.99945 5.7756 6.99945 5.33357ZM30.3328 5.33357C30.3328 4.34466 30.0395 3.37796 29.4901 2.55572C28.9407 1.73347 28.1598 1.09261 27.2462 0.714171C26.3326 0.335733 25.3272 0.236716 24.3573 0.429642C23.3874 0.622569 22.4965 1.09877 21.7973 1.79804C21.098 2.4973 20.6218 3.38821 20.4289 4.35812C20.2359 5.32802 20.3349 6.33335 20.7134 7.24699C21.0918 8.16062 21.7327 8.94151 22.5549 9.49092C23.3772 10.0403 24.3439 10.3336 25.3328 10.3336C26.6589 10.3336 27.9306 9.80678 28.8683 8.8691C29.806 7.93142 30.3328 6.65965 30.3328 5.33357ZM23.6661 5.33357C23.6661 5.00393 23.7639 4.6817 23.947 4.40762C24.1301 4.13354 24.3904 3.91992 24.695 3.79377C24.9995 3.66762 25.3346 3.63462 25.6579 3.69893C25.9812 3.76324 26.2782 3.92197 26.5113 4.15506C26.7444 4.38814 26.9031 4.68512 26.9674 5.00842C27.0317 5.33172 26.9987 5.66683 26.8726 5.97137C26.7464 6.27592 26.5328 6.53622 26.2587 6.71935C25.9847 6.90249 25.6624 7.00024 25.3328 7.00024C24.8908 7.00024 24.4668 6.82464 24.1543 6.51208C23.8417 6.19952 23.6661 5.7756 23.6661 5.33357Z" fill="#FF6F00"/>
</svg>
