<svg width="20" height="20" viewBox="0 0 20 20" fill="none" xmlns="http://www.w3.org/2000/svg">
<path opacity="0.4" d="M1.66675 9.23206C1.70841 11.1804 1.82508 14.5129 1.84175 14.8804C1.90091 15.6662 2.20175 16.4604 2.67008 17.0204C3.32175 17.8062 4.12425 18.1571 5.24341 18.1571C6.79008 18.1654 8.49508 18.1654 10.1509 18.1654C11.8134 18.1654 13.4267 18.1654 14.7892 18.1571C15.8926 18.1571 16.7201 17.7971 17.3634 17.0204C17.8317 16.4604 18.1326 15.6579 18.1751 14.8804C18.1917 14.5712 18.2751 10.9537 18.3251 9.23206H1.66675Z" fill="#FF6F00"/>
<path d="M9.37109 12.8202V13.8985C9.37109 14.2435 9.65109 14.5235 9.99609 14.5235C10.3411 14.5235 10.6211 14.2435 10.6211 13.8985V12.8202C10.6211 12.4752 10.3411 12.1952 9.99609 12.1952C9.65109 12.1952 9.37109 12.4752 9.37109 12.8202Z" fill="#FF6F00"/>
<path fill-rule="evenodd" clip-rule="evenodd" d="M8.50925 12.1303C8.42592 12.4328 8.13508 12.6262 7.82008 12.5845C5.69425 12.2878 3.66258 11.5337 1.94758 10.4012C1.77175 10.2862 1.66675 10.0895 1.66675 9.87949V6.99116C1.66675 5.24116 3.09341 3.81783 4.84758 3.81783H6.48675C6.64342 2.60783 7.66842 1.66699 8.92008 1.66699H11.0717C12.3226 1.66699 13.3484 2.60783 13.5051 3.81783H15.1526C16.9018 3.81783 18.3251 5.24116 18.3251 6.99116V9.87949C18.3251 10.0895 18.2192 10.2853 18.0451 10.4012C16.3267 11.5387 14.2867 12.2962 12.1467 12.592C12.1176 12.5962 12.0892 12.5978 12.0609 12.5978C11.7784 12.5978 11.5259 12.407 11.4551 12.127C11.2867 11.4637 10.6842 10.9995 9.99175 10.9995C9.29008 10.9995 8.69425 11.4537 8.50925 12.1303ZM11.0717 2.91699H8.92008C8.35925 2.91699 7.89091 3.30033 7.75091 3.81783H12.2401C12.1001 3.30033 11.6317 2.91699 11.0717 2.91699Z" fill="#FF6F00"/>
</svg>
